<svg width="300" height="195" viewBox="0 0 300 195" fill="none" xmlns="http://www.w3.org/2000/svg">
<path d="M299.009 55.9735C298.824 61.6432 297.748 69.019 296.467 74.5259C296.071 76.2465 295.954 75.3137 295.659 76.4923C295.073 78.806 294.72 81.0037 294.017 83.2456C293.782 83.9869 293.572 82.9379 293.334 83.7153C292.025 87.9925 290.915 92.0534 289.322 96.2809C281.457 117.06 269.452 135.822 253.534 151.538C248.295 156.743 241.229 162.263 235.173 166.847C234.468 167.385 235.133 167.404 235.016 167.53C233.149 169.49 233.394 168.309 231.911 169.204C226.018 172.741 219.427 176.537 213.58 179.584C211.085 180.875 213.97 180.378 211.222 181.189C211.032 181.244 211.491 180.553 210.777 180.838C209.162 181.491 206.16 182.893 204.898 183.372C202.469 184.3 202.07 184.46 199.763 185.327C196.613 186.497 192.738 187.567 189.316 188.658C188.582 188.893 189.686 189.035 188.522 189.446C187.36 189.864 184.183 190.658 183.095 190.806C182.003 190.962 182.377 190.514 182.17 190.482C180.477 190.209 176.989 191.887 176.517 191.992C167.893 194.057 160.26 194.317 151.997 194.563C150.641 194.601 149.26 194.629 147.866 194.641C142.811 194.692 137.66 194.523 133 194.037C125.881 193.281 119.982 192.032 113.224 190.473C112.513 190.306 113.224 191.012 112.354 190.806C103.099 188.601 94.1332 185.398 85.6987 181.114C84.855 180.684 86.1518 180.784 85.3232 180.329C80.1894 177.594 72.7894 172.35 68.8524 172.147C65.5622 169.997 61.6789 167.205 59.1241 164.775C57.4793 163.205 59.5197 164.145 57.2018 162.621C56.6815 162.274 57.0526 163.118 56.2917 162.568C53.0876 160.247 49.8994 157.325 46.887 154.821C46.2731 154.312 46.1658 154.743 45.9527 154.64C44.1662 153.751 42.5731 150.842 42.1486 150.304C38.8504 146.204 36.1744 143.49 33.0917 139.709C32.3815 138.829 32.8173 140.198 32.1193 139.359C28.5069 134.996 25.124 130.171 22.369 125.362C21.7583 124.291 22.7379 125.014 22.4667 124.49C21.2806 122.183 20.2675 122.125 19.178 119.876C18.95 119.402 19.4282 119.47 19.4171 119.366C19.2512 117.748 17.818 117.061 17.6154 116.73C15.0632 112.568 14.5784 109.337 12.5719 105.114C12.3326 104.605 12.3927 105.962 11.7482 104.516C7.46127 94.8889 4.33337 84.0938 2.80987 73.8005C2.57378 72.202 3.14046 73.2703 3.16559 73.1619C3.55478 71.4161 2.4632 70.5208 2.34315 70.0022C1.42749 65.9386 1.77862 61.9826 0.429044 59.2864C0.149968 54.9658 -0.000468021 50.6728 0.0111466 46.3398C-0.33408 32.4916 7.3653 18.8772 19.1372 12.2699C19.3323 12.1531 19.2518 12.7612 19.6382 12.5286C24.2814 9.90651 23.0352 9.89856 25.9077 7.45206C26.6224 6.84638 29.5493 6.72931 29.8008 6.72337C30.7208 6.65743 30.1371 7.63464 30.429 7.57577C32.8018 7.11117 31.7063 5.07417 34.7941 4.04122C34.8923 4.01334 34.6131 4.54261 34.8862 4.4976C35.7333 4.36013 36.4949 3.95393 37.3426 3.8585C39.2836 3.65697 40.2455 4.52371 42.8707 3.27343C43.2143 3.12063 42.3676 1.95439 45.2738 1.44603C46.452 1.21195 51.5392 0.424925 52.9999 0.384066C54.4527 0.312657 53.5036 0.830715 53.609 0.83723C57.5473 1.0097 56.099 1.38508 58.0575 2.05352C60.0011 2.74545 59.3716 0.856569 60.1496 0.602251C60.9288 0.342589 63.7923 0.721523 64.494 0.882455C65.1947 1.03516 64.3273 1.30368 64.9434 1.38934C68.9837 1.98675 66.732 0.442485 68.0853 0.154506C71.3087 -0.49475 73.7591 1.0868 76.6115 1.48203C77.3905 1.59205 76.7817 1.20784 77.4831 1.24437C80.2661 1.40806 81.8772 2.05281 85.0543 2.12892C85.5701 2.13786 88.2578 1.71493 89.7745 2.66079C89.9875 2.7957 89.2656 3.01495 90.4129 3.32458C92.1247 3.78226 95.208 4.56433 97.074 4.93139C98.4533 5.20063 97.0464 4.22119 98.7104 4.85403C99.4477 5.13954 97.9526 5.08605 99.3433 5.59708C100.73 6.09565 104.315 7.18051 105.66 7.63748C107.007 8.0827 106.417 7.4124 106.535 7.42046C107.246 7.4732 109.919 8.22006 110.142 8.31343C121.635 12.6601 131.27 18.9339 140.298 26.7005C141.003 27.3162 140.859 26.5505 140.97 26.6408C143.452 28.6949 140.763 27.8677 142.054 29.7019C142.487 28.7978 143.337 29.8372 144.948 31.429C145.721 32.1998 145.594 31.5147 145.689 31.5624C147.201 32.4004 147.372 33.7523 147.439 34.0645C147.692 35.225 148.916 35.7515 149.064 36.5578C149.205 37.3553 147.795 36.3411 149.065 38.0626C149.695 38.3566 149.48 36.523 150.559 37.7869C154.902 42.4586 158.905 53.7675 159.569 58.7018C160.488 63.6318 160.592 65.261 160.645 68.1444C160.544 73.4146 161.148 71.5657 161.32 74.7832C161.379 78.0679 159.866 76.3368 159.483 76.7682C159.092 77.1846 159.398 77.7154 159.14 78.2597C158.881 78.7989 158.795 77.5554 158.559 78.8655C158.338 80.2176 158.317 83.8057 158.56 84.3337C159.102 85.464 160.291 84.0178 159.186 87.4399C159.119 87.6363 158.866 86.8831 158.633 87.6392C156.785 93.6491 154.367 99.8073 151.535 104.997C151.133 105.733 151.032 104.852 150.793 105.277C148.225 109.719 149.751 108.444 149.145 111.444C148.82 110.919 148.349 110.857 147.745 111.272L147.991 111.278C147.988 110.397 147.524 108.977 146.643 107.037C145.689 104.905 145.387 105.484 144.465 104.251C144.186 103.879 143.912 102.255 143.583 102.077C142.485 101.424 142.237 103.387 141.113 99.2854C141.068 99.108 141.673 99.5085 141.487 98.9069C140.349 95.0347 139.417 94.8783 138.242 90.8004C137.252 87.3262 136.759 81.5948 136.588 77.572C137.906 77.5344 137.401 74.0258 136.51 72.5981C136.541 70.0725 136.658 67.3245 137.072 64.9884C137.216 64.1833 137.533 64.7648 137.587 64.6676C138.429 63.2357 137.746 61.9742 137.807 61.4411C138.555 55.6173 140.719 51.3053 142.529 46.0289C142.596 45.8451 141.901 45.1246 143.203 44.1042C143.289 44.0446 142.795 45.861 144.061 43.5679C145.327 41.2578 148.401 37.4245 150.371 34.3589C150.827 33.6177 151.699 31.4106 153.361 30.4968C153.582 30.3769 153.599 30.7479 153.941 30.5991C155.036 30.1236 154.793 29.0275 156.276 28.6822C157.758 28.3459 160.025 26.979 162.485 24.2919C162.565 24.2071 162.757 23.0957 163.669 22.4139C165.115 21.3247 167.313 19.9564 168.907 18.9141C169.66 18.4199 168.926 18.3481 169.053 18.2555C174.07 14.7491 178.16 13.0373 184.227 10.5865C185.327 10.1399 188.303 8.25735 190.679 7.95136C193.268 7.63985 191.52 10.5518 196.833 8.31133C198.962 7.44603 201.132 3.84185 205.618 4.38065C213.593 2.28613 221.207 2.1411 229.418 1.4643C229.784 1.43403 230.948 0.620459 231.819 0.637138C233.107 0.662624 233.837 1.05476 234.76 1.1071C238.632 1.3444 242.196 1.32094 245.904 1.88553C247.299 2.10563 246.757 2.41151 248.398 2.70062C250.077 3.00982 251.301 2.71427 253.479 3.45485C255.108 4.02107 256.525 5.45073 258.656 6.22246C259.035 5.27007 260.542 5.71211 263.234 6.41606C263.766 6.55854 263.34 6.01736 263.599 6.0679C264.659 6.26903 265.453 6.90755 266.443 7.11184C266.684 7.16253 266.833 6.8448 267.039 6.86961C268.807 7.05584 270.946 9.02294 271.302 9.38368C272.666 10.7133 273.611 10.7513 274.676 11.6607C275.717 12.573 273.865 11.6843 275.129 12.6521C277.819 14.7035 281.099 17.3441 283.36 19.864C284.254 20.8571 283.992 19.8696 284.128 20.0043C286.1 22.0155 287.273 24.6282 288.869 25.4922C287.739 28.4056 290.018 26.7698 291.223 30.7423C291.308 31.061 290.397 31.8331 289.789 30.8056C289.18 29.7849 288.728 28.0254 287.673 26.7478C287.43 26.4192 285.352 25.1643 285.127 24.9849C283.403 23.4351 284.48 22.1524 284.479 21.9825C284.371 20.2086 281.602 18.9856 281.033 18.5808C278.426 16.5977 276.364 14.7664 273.919 13.4958C272.336 12.6943 271.617 13.5791 270.444 12.8759C266.474 10.6178 265.558 8.55581 260.955 8.32377C259.974 8.30418 260.506 9.71958 257.611 7.82657C257.448 7.70673 255.213 6.16386 253.709 6.38886C253.518 6.41543 253.442 6.76299 253.206 6.73839C251.624 6.57155 250.641 6.07614 248.885 5.89506C247.118 5.715 245.088 5.61626 243.112 5.26837C241.936 5.0572 240.422 4.25463 239.873 4.04939C238.292 3.44988 236.496 4.12424 235.505 3.52073C234.49 2.91678 236.563 2.11388 233.829 1.66686C233.705 2.5889 233.453 3.53284 233.277 4.45972C227.464 4.32217 221.659 4.37191 215.807 5.19504C215.087 5.29891 215.89 5.69033 215.123 5.8162C211.893 6.35421 208.978 6.51805 205.678 7.39373C203.12 8.07666 200.454 9.309 197.865 10.2215C195.947 9.67549 192.155 11.2868 189.35 12.2819C188.367 12.627 188.329 12.3403 187.605 12.5307C184.885 13.278 186.462 13.6466 185.817 14.076C183.089 15.9573 181.927 14.1425 178.464 15.9534C178.273 16.0454 176.595 18.2235 176.334 18.4592C174.655 19.935 175.823 18.292 174.591 18.9052C172.349 20.0456 170.743 20.7253 168.491 22.6815C167.834 23.2533 166.602 25.0066 164.983 25.589C164.769 25.6661 164.633 25.299 164.482 25.3899C161.763 27.1007 162.465 28.0894 161.397 29.5624C160.335 31.0326 157.84 32.3904 157.276 32.6563C155.814 33.3145 157.878 31.6543 157.901 31.5625C158.078 30.3911 156.697 31.9236 155.598 33.0416C154.593 32.4236 153.17 34.1416 154.471 34.2115C154.612 34.216 155.343 33.2363 155.598 33.0416C155.487 34.8267 154.091 36.6238 151.66 38.108C150.538 38.817 150.706 37.4904 148.742 40.76C147.885 42.26 148.909 42.1236 148.317 43.5101C146.98 46.6561 144.423 50.3276 143.386 53.7173C143.01 54.9419 143.822 53.9026 143.586 54.7412C142.97 56.9913 142.156 58.7991 141.853 61.118C141.827 61.3262 142.37 60.9155 142.238 61.6182C141.287 66.9172 140.748 71.7063 141.142 77.332C141.321 80.2121 142.291 84.8566 142.93 87.7575C143.894 92.5826 145.36 98.8965 147.119 102.637C148.292 105.16 148.486 104.422 149.255 105.396C150.082 106.432 150.714 108.186 151.182 109.682L144.632 109.53C145.428 108.53 146.124 107.771 146.311 107.579C146.332 107.563 145.216 109.832 146.067 108.759C146.869 108.3 146.3 107.604 146.311 107.579C146.616 107.288 148.902 102.974 149.178 102.1C149.349 101.618 148.839 101.697 148.934 101.451C151.274 95.4033 153.261 89.3977 154.741 83.1406C154.771 83.0338 155.209 83.2929 155.275 83.0396C156.179 79.5492 155.898 76.8467 155.717 73.932C155.53 70.9667 155.551 68.517 156.242 66.7138C155.999 64.5299 155.846 61.1258 155.636 59.2576C155.433 57.3625 154.436 57.3617 154.381 57.2074C152.401 52.4055 151.797 49.5391 149.243 44.796C148.056 42.549 144.997 38.4523 143.093 36.4556C141.611 34.8533 140.858 33.7322 139.313 32.3899C139.106 32.2121 139.009 32.7015 138.939 32.6547C136.992 31.4583 138.461 31.472 138.25 31.0173C137.458 29.3813 136.9 28.3725 134.39 26.736C133.814 26.3579 131.375 26.3231 130.341 25.6871C128.987 24.8511 129.782 24.7658 128.325 23.9211C128.199 23.8499 128.046 24.1317 127.189 23.5487C123.27 20.8891 118.724 18.1987 114.122 16.1719C113.492 15.8937 114.087 16.7214 113.176 16.3313C108.942 14.5232 104.15 12.7705 99.8735 11.2613C98.818 10.8879 99.5909 10.7399 99.3874 10.5689C98.123 9.52348 95.8208 9.89232 95.4829 9.8278C87.3298 8.26522 81.0995 6.4135 72.6022 6.24841C72.1246 6.23166 68.5466 7.07431 66.9965 6.20542C66.8879 6.14577 65.3476 5.24241 63.9435 5.86748C63.8585 5.90746 64.8432 6.34526 63.133 6.32758C61.414 6.31195 58.7335 6.73221 56.3809 6.43182C55.6313 6.33636 53.7629 5.6133 51.6705 6.59585C51.5157 6.65363 48.4618 8.70443 47.0753 7.862C46.8561 7.72543 46.822 6.52098 44.3746 7.6366C43.914 7.85465 44.8443 7.91451 43.6091 8.35295C41.7737 9.01502 39.0166 9.41615 36.8978 10.6521C36.5193 10.8678 35.1095 12.1678 33.5436 12.1353C33.2988 12.1299 33.561 11.6111 32.8314 11.8499C29.4002 12.9749 26.0893 14.9121 22.983 16.6156C21.8525 17.2497 22.0503 16.357 20.8398 16.9978C19.6185 17.6371 17.4302 19.191 16.587 20.3912C15.7737 21.5598 17.5293 21.2334 16.1575 22.7149C10.3053 29.1196 6.5691 37.1277 6.4847 46.1515C6.48375 46.2202 6.48392 46.2828 6.48504 46.3398C6.51028 47.4657 6.82209 46.4961 6.85149 48.4922C6.8445 56.2383 8.77007 69.4129 9.573 76.0972C10.1547 81.4973 8.20724 74.9617 8.8858 79.0553C9.22579 81.0372 10.902 82.8325 11.0632 83.284C12.6509 87.7005 13.1624 90.9551 14.7432 94.8675C15.0735 95.6738 15.2204 94.7104 15.4979 95.3969C16.4519 97.7387 17.2452 100.267 18.2433 102.47C18.6932 103.456 18.9416 103.128 19.3217 104.046C20.241 106.238 21.0123 108.195 21.7673 110.423C21.8369 110.627 20.7869 109.551 21.5774 111.136C22.8582 113.692 24.3005 116.987 26.304 119.632C26.9025 120.415 27.6112 120.02 28.25 122.095C28.3882 122.527 27.2461 122.597 29.3002 124.186C29.6401 124.466 32.8772 127.203 33.4679 129.247C33.6199 129.789 33.7759 131.365 34.5937 132.23C34.7064 132.344 34.6704 131.57 35.2952 132.318C37.4929 134.956 39.7428 137.761 42.1876 140.299C42.8413 140.974 42.2498 139.63 43.2131 140.641C45.8604 143.421 49.1371 146.911 51.7979 149.569C52.7775 150.549 51.819 150.177 51.8645 150.275C52.6093 151.873 53.9385 151.841 54.3739 152.157C57.0917 154.132 58.7858 156.078 61.2927 157.891C61.9845 158.389 61.7703 157.678 61.9278 157.752C63.5464 158.521 62.0389 158.341 62.8739 159.083C65.2145 161.156 68.094 163.138 70.766 164.812C71.7493 165.425 70.9289 164.299 71.8071 164.851C77.0149 168.104 82.5663 171.223 87.8796 174.023C88.8788 174.549 88.0739 174.596 88.2501 174.776C89.4686 176.026 92.0061 176.218 92.5392 176.354C94.9715 176.986 95.7369 177.655 97.8174 178.384C107.947 181.98 120.798 185.284 130.881 186.549C136.965 187.357 142.441 187.761 147.866 187.864C154.135 187.971 160.217 187.685 166.951 186.735C167.745 186.622 166.875 186.224 167.556 186.119C176.357 184.764 184.974 182.924 193.38 179.908C194.068 179.66 192.916 179.544 194.011 179.13C196.248 178.279 199.109 177.223 201.408 176.438C202.531 176.054 201.222 177.048 202.35 176.65C204.987 175.717 207.728 174.51 210.266 173.17C211.344 172.598 209.477 172.972 210.89 172.261C220.494 167.381 229.308 161.528 238.111 155.057C238.713 154.613 239.872 154.962 240.958 153.766C240.866 153.476 240.645 153.232 240.489 152.972C252.232 142.544 262.538 130.619 270.491 116.96C270.825 116.385 269.791 117.114 270.43 116C274.113 109.539 277.057 102.949 280.234 96.0158C280.545 95.3248 281.303 96.0163 281.924 93.8609C282.041 93.4839 283.007 90.2466 283.066 89.3495C283.072 89.2276 282.47 89.68 282.783 88.6424C284.6 82.6382 286.238 76.2342 287.54 70.0914C287.751 69.0953 288.034 70.2416 288.188 69.5305C289.274 64.4831 289.509 58.8827 290.185 53.9724C290.625 50.696 291.371 51.9481 292.222 50.2002C292.345 49.953 292.398 47.8781 292.858 47.7728C294.024 47.503 295.285 48.5411 296.529 48.1352C296.803 48.0503 296.522 45.1744 297.163 46.8787C297.209 46.9981 297.401 49.0861 297.605 49.6046C297.748 49.9661 298.233 49.3297 298.41 50.0671C298.585 50.806 298.168 51.5978 298.345 52.8163C298.519 54.0372 299.09 53.5233 299.009 55.9735ZM154.028 50.7386C153.756 48.9099 152.147 49.3403 153.24 50.9316C153.294 51.0083 154.042 50.8321 154.028 50.7386ZM221.595 3.27623C219.135 2.7566 217.61 4.01927 219.35 4.39178C221.072 4.77586 222.335 3.43799 221.595 3.27623ZM246.453 3.42343C243.75 2.46735 243.044 4.73442 246.029 4.66416C246.201 4.66221 246.609 3.48017 246.453 3.42343ZM292 58.4456C292.025 58.4227 292.162 56.9379 292.141 56.9003C291.681 56.074 291.411 59.0321 292 58.4456ZM270.16 10.1386C269.492 9.41932 267.095 8.70017 267.898 9.51126C268.526 10.1383 270.955 10.9953 270.16 10.1386ZM76.6166 2.28879C76.5896 2.26059 75.5197 2.14565 75.5301 2.28658C75.566 2.73518 77.0621 2.74275 76.6166 2.28879ZM293.141 42.8569C292.674 36.9076 293.292 32.373 294.558 39.4458C294.726 40.693 293.488 36.8478 293.598 38.478C293.77 41.3407 295.147 43.1359 294.527 46.2828C294.434 46.8116 293.196 43.1663 293.138 42.8461C293.139 42.8497 293.14 42.8533 293.141 42.8569ZM155.452 49.0155C155.463 48.9741 154.873 47.593 154.834 47.5722C154.033 47.0564 155.211 49.8041 155.452 49.0155ZM16.1081 15.0483C16.0029 15.0314 13.3007 17.3181 13.2652 17.4579C12.4908 19.2661 17.8191 14.7256 16.1081 15.0483ZM136.619 77.5087C135.969 75.8839 135.846 73.8885 136.509 72.6054C136.475 74.2074 136.53 75.8454 136.619 77.5087Z" fill="#F29688"/>
</svg>
